<?xml version="1.0" encoding="utf-8" ?><svg xmlns="http://www.w3.org/2000/svg" xmlns:xlink="http://www.w3.org/1999/xlink" width="987" height="826" viewBox="0 0 987 826"><path fill="#E2E2E2" fill-opacity="0.043137256" d="M0 0L987 0L987 826L0 826L0 0ZM514.878 680.827C513.049 677.648 510.27 671.809 511.761 668.377C516.689 657.041 527.827 645.717 535.217 635.791C559.505 603.172 583.036 569.584 598.257 531.636C603.18 519.423 609.674 500.093 601.872 487.952C590.472 470.213 564.397 461.422 544.926 456.12C509.423 446.344 475.097 446.484 439.171 453.181C419.983 456.759 404.308 463.101 386.351 470.072L341.303 487.594C283.374 509.894 225.318 531.864 167.138 553.502C156.789 557.34 146.466 561.249 136.171 565.229C130.053 567.576 121.001 571.232 114.687 572.789L114.658 625.916C114.627 650.359 111.722 669.876 128.527 690.286L182.907 688.148C201.3 687.317 217.659 685.967 236.075 687.695C260.372 689.973 285.159 690.132 309.532 691.221C325.64 691.602 343.118 693.192 359.177 692.981C371.605 692.817 386.65 690.113 398.905 688.731C433.626 684.816 467.008 679.3 501.441 688.377C506.713 689.767 512.944 690.417 518.45 691.821C535.506 695.157 552.611 698.236 569.76 701.058C581.338 703.041 597.85 706.669 609.401 706.131C640.501 704.68 672.353 694.769 703.36 691.433C717.847 689.875 737.291 691.989 752.155 692.704L790.651 694.725C799.389 695.166 809.515 695.418 818.029 696.387L817.741 684.831C792.97 683.506 768.191 682.329 743.406 681.299C729.332 680.655 715.057 678.704 701.079 680.565C693.855 681.527 686.752 682.757 679.59 684.075L642.071 690.756C634.994 692.01 622.831 694.465 615.854 694.917C595.9 696.211 573.157 690.606 553.371 687.327C540.736 685.232 527.232 683.245 514.878 680.827ZM522.976 708.792C504.474 705.804 485.843 701.362 467.094 700.789C455.251 700.426 442.862 701.803 431.003 702.772C392.737 705.897 354.092 712.558 315.75 714.202C285.981 715.478 255.475 704.997 225.732 704.126C211.729 703.476 201.282 704.863 187.382 705.691C163.326 707.124 139.683 709.478 115.692 711.574L115.669 721.397L182.774 716.024C197.44 714.94 212.29 713.428 226.969 714.278C246.385 715.402 265.385 719.359 284.659 721.943C316.157 726.166 346.744 722.007 378.068 718.49C392.271 716.912 406.487 715.451 420.714 714.109C435.197 712.623 449.633 710.513 464.221 710.695C476.762 710.851 488.902 713.087 501.232 715.199C510.049 716.709 519.495 718.013 528.201 719.819L576.232 728.253C607.821 733.492 614.154 733.008 645.572 727.166L678.907 721.286C696.421 718.142 706.964 715.745 725.076 717.15C755.886 719.54 787.165 719.644 817.992 722.469C818.24 718.751 818.205 714.668 818.25 710.916C793.261 709.954 767.894 707.729 742.843 706.751C731.401 706.304 718.27 704.878 707.013 705.345C698.191 705.99 689.509 708.03 680.809 709.571C659.728 713.307 638.504 718.148 617.236 720.584C601.359 722.402 584.265 718.898 568.643 716.298C553.404 713.762 538.274 711.111 522.976 708.792ZM538.726 737.516C514.131 733.227 486.971 727.347 462.191 726.89C448.773 726.643 431.51 728.896 418.072 730.423L358.353 736.74C343.274 738.308 331.504 739.961 316.221 740.266C285.916 740.871 258.593 732.867 228.6 730.793C210.779 729.561 190.587 731.436 172.676 733.016C154.52 734.618 133.894 735.614 115.966 737.78L115.932 748.083C137.803 747.033 160.065 744.143 181.959 742.839C194.858 742.071 207.796 740.214 220.771 740.747C238.708 741.73 257.814 745.256 275.672 747.715C290.465 749.724 305.39 750.612 320.318 750.372C336.898 750.099 353.682 747.179 370.151 745.615C400.922 742.692 431.816 738.23 462.68 736.96C474.309 736.537 489.06 739.327 500.497 741.175L545.915 748.663C551.092 750.136 564.861 752.054 570.984 753.213C582.044 755.306 597.959 758.125 609.104 757.933C628.635 757.595 650.505 751.667 669.908 748.523C681.765 746.601 695.468 743.33 707.247 742.726C717.007 742.226 729.25 743.429 739.221 743.732C765.449 744.53 791.99 747.199 818.161 748.116C818.26 744.632 818.214 740.921 818.234 737.417C809.117 736.056 792.638 735.614 782.956 734.969C766.987 733.898 751.007 733.007 735.018 732.299C726.428 731.862 708.144 730.537 700.244 731.87C681.22 735.634 660.991 738.474 642.084 742.316C619.436 746.919 601.531 748.703 578.621 743.91C566.178 741.307 551.566 738.938 538.726 737.516ZM456.761 5.9919C355.367 10.9359 260.112 56.0388 192.034 131.339C123.199 209.644 88.3536 312.12 95.1856 416.152C97.5526 458.514 109.153 509.294 127.029 547.687C133.105 545.235 141.244 542.192 147.092 539.436C144.764 532.182 141.457 525.128 138.894 517.977C134.872 506.762 130.921 494.812 127.978 483.264C105.32 394.913 116.109 301.306 158.27 220.424C163.099 211.056 168.764 201.557 174.25 192.535C225.357 112.465 306.437 56.2296 399.34 36.4174C489.976 16.202 584.935 33.4304 662.692 84.1972C704.185 111.233 728.03 137.009 758.712 174.391C765.431 171.222 770.669 167.185 777.033 163.873C768.838 151.507 757.753 138.786 747.775 127.833C694.032 68.3358 622.535 27.7542 543.897 12.1132C517.55 6.77606 483.778 4.47812 456.761 5.9919ZM844.804 162.627C791.409 164.986 751.782 196.504 709.382 225.115C674.27 248.808 639.66 273.85 604.255 297.013C617.398 296.738 638.373 296.559 651.48 297.294C650.758 302.044 649.68 306.734 648.257 311.323L587.45 311.303C572.69 298.844 567.579 304.261 558.015 317.816C549.587 312.767 539.701 305.439 531.678 299.628L492.244 271.084C484.977 276.262 476.219 282.113 469.226 287.381C483.743 306.808 500.495 327.031 514.2 346.755C504.66 349.805 491.193 353.104 482.292 355.907C478.72 357.032 458.094 377.569 455.572 380.983C464.505 379.704 508.975 371.741 514.488 368.115L522.109 362.493C520.948 365.998 517.542 374.142 519.883 377.689C527.951 389.919 538.348 376.818 545.653 375.882C557.513 374.361 573.52 374.666 585.321 374.267L584.682 374.772C577.749 380.192 535.228 405.495 534.146 409.644C535.817 411.106 540.609 410.228 542.505 410.895C545.726 412.027 548.348 413.937 552.057 413.386C561.596 411.968 571.137 405.081 579.558 400.553L622.793 377.07C630.139 373.099 637.829 368.679 645.326 365.095C662.386 368.741 678.587 366.037 693.549 356.703C697.764 354.074 702.475 349.816 706.356 346.545C726.039 346.127 745.727 346.034 765.413 346.267C774.774 346.313 786.362 346.745 795.627 345.946C798.25 345.719 802.205 342.183 804.117 340.184C804.51 339.771 804.897 339.351 805.277 338.925C800.911 333.378 796.581 327.802 792.288 322.199C789.719 318.86 786.009 313.675 783.052 310.922C771.509 311.177 760.916 310.913 749.442 310.884C759.323 304.081 768.599 299.571 779.042 293.712L829.337 265.16C846.741 255.153 867.283 243.71 879.134 227.251C903.889 192.871 886.418 161.229 844.804 162.627ZM830.708 281.89C825.307 285.414 817.061 289.837 811.193 292.809C815.647 305.928 817.912 318.541 820.485 332.275C831.551 391.338 827.078 453.252 808.243 510.268C807.547 512.374 806.394 514.788 806.772 516.982C807.657 517.407 807.588 517.411 808.564 517.375C815.612 517.329 823.067 517.401 830.078 517.103C834.876 500.089 839.663 482.863 842.616 465.66C852.601 407.479 848.951 347.047 833.56 290.14C833.106 288.462 831.82 282.936 830.708 281.89ZM284.158 314.452C281.025 314.448 272.371 314.026 270.077 315.468C268.373 319.327 268.857 350.919 269.449 355.712C276.626 355.818 283.805 355.833 290.982 355.757C294.557 355.807 304.151 356.448 306.856 354.796C308.055 350.585 307.904 320.147 306.558 315.25C304.285 313.662 287.672 314.412 284.158 314.452ZM220.216 366.355C214.038 367.646 209.058 370.032 205.54 375.536C203.73 378.4 202.563 381.622 202.117 384.981C201.401 390.055 201.946 399.25 201.9 404.707C201.801 416.283 201.995 428.027 201.768 439.599C196.772 439.613 190.907 439.355 186.004 440.035C164.035 443.08 167.972 465.54 168.003 482.119L168.194 532.937C176.598 529.406 185.106 526.13 193.709 523.115C193.851 503.174 193.839 483.233 193.671 463.293C202.369 463.094 211.069 463.032 219.769 463.107L219.83 386.467C224.597 386.419 229.934 386.257 234.65 386.377C234.438 426.798 234.448 467.219 234.68 507.639C239.947 505.915 249.31 502.617 254.458 500.389L254.653 486.858C272.738 486.854 283.19 488.649 300.144 482.345C318.888 475.424 341.707 465.769 360.216 459.82C324.955 459.615 289.693 459.605 254.432 459.79L254.455 439.715C297.872 440.065 341.043 439.001 384.534 439.932L384.56 450.362C390.626 447.959 399.985 444.581 405.624 441.824L405.614 404.946C405.672 394.852 407.74 379.114 400.026 371.575C397.231 368.793 393.599 367.008 389.689 366.497C384.858 365.853 374.433 366.137 369.242 366.155L332.515 366.276C296.562 366.33 258.905 365.644 223.08 366.259C222.125 366.281 221.17 366.313 220.216 366.355ZM842.756 535.167C814.121 536.108 781.679 535.334 752.658 535.329L615.86 535.281C603.123 574.872 583.625 603.062 559.713 636.245C555.201 642.521 550.618 648.746 545.963 654.917C544.006 657.524 539.293 663.36 538.065 665.833C538.515 666.457 538.235 666.321 538.78 666.436L663.005 666.505C690.384 666.768 717.765 666.815 745.146 666.645C755.843 666.524 766.541 666.51 777.239 666.603C779.475 666.613 790.557 666.775 791.931 666.477C797.06 665.365 806.83 656.81 810.677 652.868C841.962 620.807 843.692 582.239 843.446 539.942C843.436 538.354 843.398 537.24 843.247 535.653L842.756 535.167Z"/><path fill="#D55108" d="M127.029 547.687C109.153 509.294 97.5526 458.514 95.1856 416.152C88.3536 312.12 123.199 209.644 192.034 131.339C260.112 56.0388 355.367 10.9359 456.761 5.9919C483.778 4.47812 517.55 6.77606 543.897 12.1132C622.535 27.7542 694.032 68.3358 747.775 127.833C757.753 138.786 768.838 151.507 777.033 163.873C770.669 167.185 765.431 171.222 758.712 174.391C728.03 137.009 704.185 111.233 662.692 84.1972C584.935 33.4304 489.976 16.202 399.34 36.4174C306.437 56.2296 225.357 112.465 174.25 192.535C168.764 201.557 163.099 211.056 158.27 220.424C116.109 301.306 105.32 394.913 127.978 483.264C130.921 494.812 134.872 506.762 138.894 517.977C141.457 525.128 144.764 532.182 147.092 539.436C141.244 542.192 133.105 545.235 127.029 547.687Z"/><path fill="#D55108" d="M604.255 297.013C639.66 273.85 674.27 248.808 709.382 225.115C751.782 196.504 791.409 164.986 844.804 162.627C886.418 161.229 903.889 192.871 879.134 227.251C867.283 243.71 846.741 255.153 829.337 265.16L779.042 293.712C768.599 299.571 759.323 304.081 749.442 310.884C760.916 310.913 771.509 311.177 783.052 310.922C786.009 313.675 789.719 318.86 792.288 322.199C796.581 327.802 800.911 333.378 805.277 338.925C804.897 339.351 804.51 339.771 804.117 340.184C802.205 342.183 798.25 345.719 795.627 345.946C786.362 346.745 774.774 346.313 765.413 346.267C745.727 346.034 726.039 346.127 706.356 346.545C702.475 349.816 697.764 354.074 693.549 356.703C678.587 366.037 662.386 368.741 645.326 365.095C637.829 368.679 630.139 373.099 622.793 377.07L579.558 400.553C571.137 405.081 561.596 411.968 552.057 413.386C548.348 413.937 545.726 412.027 542.505 410.895C540.609 410.228 535.817 411.106 534.146 409.644C535.228 405.495 577.749 380.192 584.682 374.772L585.321 374.267C573.52 374.666 557.513 374.361 545.653 375.882C538.348 376.818 527.951 389.919 519.883 377.689C517.542 374.142 520.948 365.998 522.109 362.493L514.488 368.115C508.975 371.741 464.505 379.704 455.572 380.983C458.094 377.569 478.72 357.032 482.292 355.907C491.193 353.104 504.66 349.805 514.2 346.755C500.495 327.031 483.743 306.808 469.226 287.381C476.219 282.113 484.977 276.262 492.244 271.084L531.678 299.628C539.701 305.439 549.587 312.767 558.015 317.816C567.579 304.261 572.69 298.844 587.45 311.303L648.257 311.323C649.68 306.734 650.758 302.044 651.48 297.294C638.373 296.559 617.398 296.738 604.255 297.013ZM767.221 212.051C759.734 215.843 758.121 227.039 766.904 228.366C775.453 223.948 777.149 212.124 767.221 212.051ZM742.318 227.53C734.207 233.362 735.499 245.321 744.052 243.341C751.718 238.172 752.793 226.602 742.318 227.53ZM718.654 244.382C711.258 249.435 711.209 260.244 720.077 259.58C727.224 254.654 729.347 243.29 718.654 244.382ZM695.589 259.798C691.727 262.373 690.705 263.712 689.364 268.413C690.662 272.265 691.116 275.428 695.808 275.438C704.175 270.711 705.495 258.481 695.589 259.798ZM570.429 312.313C566.606 314.249 563.699 319.534 561.709 323.232C557.514 331.028 554.943 338.892 566.902 337.518C570.487 336.045 571.543 335.034 573.595 331.803C577.98 324.897 584.237 312.354 570.429 312.313Z"/><path fill="#E2E2E2" fill-opacity="0.043137256" d="M766.904 228.366C758.121 227.039 759.734 215.843 767.221 212.051C777.149 212.124 775.453 223.948 766.904 228.366Z"/><path fill="#E2E2E2" fill-opacity="0.043137256" d="M744.052 243.341C735.499 245.321 734.207 233.362 742.318 227.53C752.793 226.602 751.718 238.172 744.052 243.341Z"/><path fill="#E2E2E2" fill-opacity="0.043137256" d="M720.077 259.58C711.209 260.244 711.258 249.435 718.654 244.382C729.347 243.29 727.224 254.654 720.077 259.58Z"/><path fill="#E2E2E2" fill-opacity="0.043137256" d="M689.364 268.413C690.705 263.712 691.727 262.373 695.589 259.798C705.495 258.481 704.175 270.711 695.808 275.438C691.116 275.428 690.662 272.265 689.364 268.413Z"/><path fill="#D55108" d="M811.193 292.809C817.061 289.837 825.307 285.414 830.708 281.89C831.82 282.936 833.106 288.462 833.56 290.14C848.951 347.047 852.601 407.479 842.616 465.66C839.663 482.863 834.876 500.089 830.078 517.103C823.067 517.401 815.612 517.329 808.564 517.375C807.588 517.411 807.657 517.407 806.772 516.982C806.394 514.788 807.547 512.374 808.243 510.268C827.078 453.252 831.551 391.338 820.485 332.275C817.912 318.541 815.647 305.928 811.193 292.809Z"/><path fill="#E2E2E2" fill-opacity="0.043137256" d="M566.902 337.518C554.943 338.892 557.514 331.028 561.709 323.232C563.699 319.534 566.606 314.249 570.429 312.313C584.237 312.354 577.98 324.897 573.595 331.803C571.543 335.034 570.487 336.045 566.902 337.518Z"/><path fill="#D55108" d="M269.449 355.712C268.857 350.919 268.373 319.327 270.077 315.468C272.371 314.026 281.025 314.448 284.158 314.452C287.672 314.412 304.285 313.662 306.558 315.25C307.904 320.147 308.055 350.585 306.856 354.796C304.151 356.448 294.557 355.807 290.982 355.757C283.805 355.833 276.626 355.818 269.449 355.712Z"/><path fill="#D55108" d="M201.768 439.599C201.995 428.027 201.801 416.283 201.9 404.707C201.946 399.25 201.401 390.055 202.117 384.981C202.563 381.622 203.73 378.4 205.54 375.536C209.058 370.032 214.038 367.646 220.216 366.355C221.17 366.313 222.125 366.281 223.08 366.259C258.905 365.644 296.562 366.33 332.515 366.276L369.242 366.155C374.433 366.137 384.858 365.853 389.689 366.497C393.599 367.008 397.231 368.793 400.026 371.575C407.74 379.114 405.672 394.852 405.614 404.946L405.624 441.824C399.985 444.581 390.626 447.959 384.56 450.362L384.534 439.932C341.043 439.001 297.872 440.065 254.455 439.715L254.432 459.79C289.693 459.605 324.955 459.615 360.216 459.82C341.707 465.769 318.888 475.424 300.144 482.345C283.19 488.649 272.738 486.854 254.653 486.858L254.458 500.389C249.31 502.617 239.947 505.915 234.68 507.639C234.448 467.219 234.438 426.798 234.65 386.377C229.934 386.257 224.597 386.419 219.83 386.467L219.769 463.107C211.069 463.032 202.369 463.094 193.671 463.293C193.839 483.233 193.851 503.174 193.709 523.115C185.106 526.13 176.598 529.406 168.194 532.937L168.003 482.119C167.972 465.54 164.035 443.08 186.004 440.035C190.907 439.355 196.772 439.613 201.768 439.599ZM257.484 390.355C257.468 398.177 257.386 406.093 257.464 413.907C265.338 413.871 273.212 413.769 281.085 413.6C281.126 405.966 281.086 398.182 281.23 390.562C273.369 390.487 265.331 390.319 257.484 390.355ZM308.278 390.545C307.124 392.803 307.647 410.033 307.666 413.928L330.947 413.866C332.116 412.136 331.612 394.085 331.593 390.652C323.882 390.352 316.007 390.493 308.278 390.545ZM357.327 390.723C357.217 398.479 357.226 406.237 357.354 413.994C365.303 413.933 373.483 413.961 381.414 413.8C381.486 406.135 381.47 398.469 381.366 390.804L357.327 390.723Z"/><path fill="#E2E2E2" fill-opacity="0.043137256" d="M257.464 413.907C257.386 406.093 257.468 398.177 257.484 390.355C265.331 390.319 273.369 390.487 281.23 390.562C281.086 398.182 281.126 405.966 281.085 413.6C273.212 413.769 265.338 413.871 257.464 413.907Z"/><path fill="#E2E2E2" fill-opacity="0.043137256" d="M307.666 413.928C307.647 410.033 307.124 392.803 308.278 390.545C316.007 390.493 323.882 390.352 331.593 390.652C331.612 394.085 332.116 412.136 330.947 413.866L307.666 413.928Z"/><path fill="#E2E2E2" fill-opacity="0.043137256" d="M357.354 413.994C357.226 406.237 357.217 398.479 357.327 390.723L381.366 390.804C381.47 398.469 381.486 406.135 381.414 413.8C373.483 413.961 365.303 413.933 357.354 413.994Z"/><path fill="#D55108" d="M114.687 572.789C121.001 571.232 130.053 567.576 136.171 565.229C146.466 561.249 156.789 557.34 167.138 553.502C225.318 531.864 283.374 509.894 341.303 487.594L386.351 470.072C404.308 463.101 419.983 456.759 439.171 453.181C475.097 446.484 509.423 446.344 544.926 456.12C564.397 461.422 590.472 470.213 601.872 487.952C609.674 500.093 603.18 519.423 598.257 531.636C583.036 569.584 559.505 603.172 535.217 635.791C527.827 645.717 516.689 657.041 511.761 668.377C510.27 671.809 513.049 677.648 514.878 680.827C515.864 684.631 516.816 688.226 518.45 691.821C512.944 690.417 506.713 689.767 501.441 688.377C467.008 679.3 433.626 684.816 398.905 688.731C386.65 690.113 371.605 692.817 359.177 692.981C343.118 693.192 325.64 691.602 309.532 691.221C285.159 690.132 260.372 689.973 236.075 687.695C217.659 685.967 201.3 687.317 182.907 688.148L128.527 690.286C111.722 669.876 114.627 650.359 114.658 625.916L114.687 572.789ZM474.713 478.264C457.69 479.021 452.276 480.46 436.467 485.165C436.234 496.082 436.175 507.001 436.288 517.92C443.6 516.391 449.946 515.116 457.373 514.054C472.386 511.85 482.459 511.304 497.303 510.165C497.75 500.091 498.428 489.968 498.78 479.91C490.433 478.755 483.188 477.966 474.713 478.264ZM529.749 480.894C529.587 491.004 529.356 501.113 529.056 511.22C545.046 513.463 559.341 515.928 574.496 521.57C576.339 522.256 581.776 524.281 583.427 523.535L584.134 521.667C590.157 501.04 590.723 490.402 566.305 483.945C554.654 480.864 541.784 480.333 529.749 480.894ZM413.359 497.386L341.198 524.037C341.145 527.338 340.559 543.152 341.577 544.916L342.128 545.041C365.724 536.44 390.625 526.146 414.265 518.103C414.25 515.252 414.563 498.392 413.359 497.386ZM311.79 534.457C297.933 539.528 284.111 544.694 270.325 549.955C259.979 553.849 249.042 557.692 238.895 562.014C238.853 565.512 238.297 581.072 239.483 583.098L240.616 582.965L313.678 555.133C313.714 551.466 314.056 537.244 313.261 534.663C312.281 534.241 312.774 534.29 311.79 534.457ZM211.434 572.096C186.367 580.496 161.484 591.023 136.696 599.42C136.645 602.369 135.995 620.193 136.931 621.614C149.75 616.477 162.622 611.474 175.546 606.605C187.405 602.019 200.073 596.937 212.098 592.907C212.115 590.162 212.671 573.016 211.434 572.096Z"/><path fill="#E2E2E2" fill-opacity="0.043137256" d="M436.467 485.165C452.276 480.46 457.69 479.021 474.713 478.264C483.188 477.966 490.433 478.755 498.78 479.91C498.428 489.968 497.75 500.091 497.303 510.165C482.459 511.304 472.386 511.85 457.373 514.054C449.946 515.116 443.6 516.391 436.288 517.92C436.175 507.001 436.234 496.082 436.467 485.165Z"/><path fill="#E2E2E2" fill-opacity="0.043137256" d="M529.056 511.22C529.356 501.113 529.587 491.004 529.749 480.894C541.784 480.333 554.654 480.864 566.305 483.945C590.723 490.402 590.157 501.04 584.134 521.667L583.427 523.535C581.776 524.281 576.339 522.256 574.496 521.57C559.341 515.928 545.046 513.463 529.056 511.22Z"/><path fill="#E2E2E2" fill-opacity="0.043137256" d="M341.198 524.037L413.359 497.386C414.563 498.392 414.25 515.252 414.265 518.103C390.625 526.146 365.724 536.44 342.128 545.041L341.577 544.916C340.559 543.152 341.145 527.338 341.198 524.037Z"/><path fill="#E2E2E2" fill-opacity="0.043137256" d="M238.895 562.014C249.042 557.692 259.979 553.849 270.325 549.955C284.111 544.694 297.933 539.528 311.79 534.457C312.774 534.29 312.281 534.241 313.261 534.663C314.056 537.244 313.714 551.466 313.678 555.133L240.616 582.965L239.483 583.098C238.297 581.072 238.853 565.512 238.895 562.014Z"/><path fill="#D55108" d="M615.86 535.281L752.658 535.329C781.679 535.334 814.121 536.108 842.756 535.167L843.247 535.653C843.398 537.24 843.436 538.354 843.446 539.942C843.692 582.239 841.962 620.807 810.677 652.868C806.83 656.81 797.06 665.365 791.931 666.477C790.557 666.775 779.475 666.613 777.239 666.603C766.541 666.51 755.843 666.524 745.146 666.645C717.765 666.815 690.384 666.768 663.005 666.505L538.78 666.436C538.235 666.321 538.515 666.457 538.065 665.833C539.293 663.36 544.006 657.524 545.963 654.917C550.618 648.746 555.201 642.521 559.713 636.245C583.625 603.062 603.123 574.872 615.86 535.281ZM628.764 566.829C624.705 569.397 624.361 576.309 626.529 580.27C628.673 584.188 632.922 583.417 636.677 582.786C639.064 581.195 640.06 578.986 640.29 576.209C641.062 566.926 635.16 566.332 628.764 566.829ZM657.739 566.797C656.356 567.423 654.887 568.007 654.37 569.551C653.29 572.779 651.785 581.691 656.35 582.786C658.362 583.268 662.081 583.146 664.304 583.104C670.139 580.587 669.977 568.852 663.684 566.937C662.312 566.52 659.246 566.733 657.739 566.797ZM687.468 566.788C681.758 568.252 680.774 572.595 681.924 578.303C682.984 583.562 687.974 583.301 692.42 582.784C694.953 581.394 696.208 580.281 697.113 577.385C697.84 575.104 697.545 572.619 696.302 570.572C693.976 566.777 691.444 566.707 687.468 566.788ZM734.867 566.754C732.47 568.28 730.384 570.628 730.257 573.457C729.863 582.211 735.528 583.027 741.524 582.534C748.096 578.726 748.205 569.101 740.335 566.711C739.387 566.423 736.037 566.689 734.867 566.754ZM764.312 566.852C761.871 567.668 760.571 568.239 759.411 570.707C758.331 573.026 758.294 575.695 759.307 578.043C761.164 582.353 764.04 583.175 768.378 582.914C773.674 580.481 775.456 576.232 773.26 570.785C771.581 566.618 767.946 566.692 764.312 566.852ZM791.048 567.277C788.835 568.719 787.162 570.754 786.922 573.37C786.089 582.466 792.2 583.572 798.614 582.979C800.949 581.24 802.98 578.812 803.005 575.888C803.075 567.444 796.637 566.971 791.048 567.277Z"/><path fill="#E2E2E2" fill-opacity="0.043137256" d="M636.677 582.786C632.922 583.417 628.673 584.188 626.529 580.27C624.361 576.309 624.705 569.397 628.764 566.829C635.16 566.332 641.062 566.926 640.29 576.209C640.06 578.986 639.064 581.195 636.677 582.786Z"/><path fill="#E2E2E2" fill-opacity="0.043137256" d="M664.304 583.104C662.081 583.146 658.362 583.268 656.35 582.786C651.785 581.691 653.29 572.779 654.37 569.551C654.887 568.007 656.356 567.423 657.739 566.797C659.246 566.733 662.312 566.52 663.684 566.937C669.977 568.852 670.139 580.587 664.304 583.104Z"/><path fill="#E2E2E2" fill-opacity="0.043137256" d="M692.42 582.784C687.974 583.301 682.984 583.562 681.924 578.303C680.774 572.595 681.758 568.252 687.468 566.788C691.444 566.707 693.976 566.777 696.302 570.572C697.545 572.619 697.84 575.104 697.113 577.385C696.208 580.281 694.953 581.394 692.42 582.784Z"/><path fill="#E2E2E2" fill-opacity="0.043137256" d="M741.524 582.534C735.528 583.027 729.863 582.211 730.257 573.457C730.384 570.628 732.47 568.28 734.867 566.754C736.037 566.689 739.387 566.423 740.335 566.711C748.205 569.101 748.096 578.726 741.524 582.534Z"/><path fill="#E2E2E2" fill-opacity="0.043137256" d="M768.378 582.914C764.04 583.175 761.164 582.353 759.307 578.043C758.294 575.695 758.331 573.026 759.411 570.707C760.571 568.239 761.871 567.668 764.312 566.852C767.946 566.692 771.581 566.618 773.26 570.785C775.456 576.232 773.674 580.481 768.378 582.914Z"/><path fill="#E2E2E2" fill-opacity="0.043137256" d="M798.614 582.979C792.2 583.572 786.089 582.466 786.922 573.37C787.162 570.754 788.835 568.719 791.048 567.277C796.637 566.971 803.075 567.444 803.005 575.888C802.98 578.812 800.949 581.24 798.614 582.979Z"/><path fill="#E2E2E2" fill-opacity="0.043137256" d="M136.696 599.42C161.484 591.023 186.367 580.496 211.434 572.096C212.671 573.016 212.115 590.162 212.098 592.907C200.073 596.937 187.405 602.019 175.546 606.605C162.622 611.474 149.75 616.477 136.931 621.614C135.995 620.193 136.645 602.369 136.696 599.42Z"/><path fill="#D55108" d="M514.878 680.827C527.232 683.245 540.736 685.232 553.371 687.327C573.157 690.606 595.9 696.211 615.854 694.917C622.831 694.465 634.994 692.01 642.071 690.756L679.59 684.075C686.752 682.757 693.855 681.527 701.079 680.565C715.057 678.704 729.332 680.655 743.406 681.299C768.191 682.329 792.97 683.506 817.741 684.831L818.029 696.387C809.515 695.418 799.389 695.166 790.651 694.725L752.155 692.704C737.291 691.989 717.847 689.875 703.36 691.433C672.353 694.769 640.501 704.68 609.401 706.131C597.85 706.669 581.338 703.041 569.76 701.058C552.611 698.236 535.506 695.157 518.45 691.821C516.816 688.226 515.864 684.631 514.878 680.827Z"/><path fill="#D55108" d="M115.692 711.574C139.683 709.478 163.326 707.124 187.382 705.691C201.282 704.863 211.729 703.476 225.732 704.126C255.475 704.997 285.981 715.478 315.75 714.202C354.092 712.558 392.737 705.897 431.003 702.772C442.862 701.803 455.251 700.426 467.094 700.789C485.843 701.362 504.474 705.804 522.976 708.792C524.603 712.509 526.756 716.147 528.201 719.819C519.495 718.013 510.049 716.709 501.232 715.199C488.902 713.087 476.762 710.851 464.221 710.695C449.633 710.513 435.197 712.623 420.714 714.109C406.487 715.451 392.271 716.912 378.068 718.49C346.744 722.007 316.157 726.166 284.659 721.943C265.385 719.359 246.385 715.402 226.969 714.278C212.29 713.428 197.44 714.94 182.774 716.024L115.669 721.397L115.692 711.574Z"/><path fill="#D55108" d="M522.976 708.792C538.274 711.111 553.404 713.762 568.643 716.298C584.265 718.898 601.359 722.402 617.236 720.584C638.504 718.148 659.728 713.307 680.809 709.571C689.509 708.03 698.191 705.99 707.013 705.345C718.27 704.878 731.401 706.304 742.843 706.751C767.894 707.729 793.261 709.954 818.25 710.916C818.205 714.668 818.24 718.751 817.992 722.469C787.165 719.644 755.886 719.54 725.076 717.15C706.964 715.745 696.421 718.142 678.907 721.286L645.572 727.166C614.154 733.008 607.821 733.492 576.232 728.253L528.201 719.819C526.756 716.147 524.603 712.509 522.976 708.792Z"/><path fill="#D55108" d="M115.966 737.78C133.894 735.614 154.52 734.618 172.676 733.016C190.587 731.436 210.779 729.561 228.6 730.793C258.593 732.867 285.916 740.871 316.221 740.266C331.504 739.961 343.274 738.308 358.353 736.74L418.072 730.423C431.51 728.896 448.773 726.643 462.191 726.89C486.971 727.347 514.131 733.227 538.726 737.516C541.261 742.158 544.073 744.585 546.149 748.224L545.915 748.663L500.497 741.175C489.06 739.327 474.309 736.537 462.68 736.96C431.816 738.23 400.922 742.692 370.151 745.615C353.682 747.179 336.898 750.099 320.318 750.372C305.39 750.612 290.465 749.724 275.672 747.715C257.814 745.256 238.708 741.73 220.771 740.747C207.796 740.214 194.858 742.071 181.959 742.839C160.065 744.143 137.803 747.033 115.932 748.083L115.966 737.78Z"/><path fill="#D55108" d="M538.726 737.516C551.566 738.938 566.178 741.307 578.621 743.91C601.531 748.703 619.436 746.919 642.084 742.316C660.991 738.474 681.22 735.634 700.244 731.87C708.144 730.537 726.428 731.862 735.018 732.299C751.007 733.007 766.987 733.898 782.956 734.969C792.638 735.614 809.117 736.056 818.234 737.417C818.214 740.921 818.26 744.632 818.161 748.116C791.99 747.199 765.449 744.53 739.221 743.732C729.25 743.429 717.007 742.226 707.247 742.726C695.468 743.33 681.765 746.601 669.908 748.523C650.505 751.667 628.635 757.595 609.104 757.933C597.959 758.125 582.044 755.306 570.984 753.213C564.861 752.054 551.092 750.136 545.915 748.663L546.149 748.224C544.073 744.585 541.261 742.158 538.726 737.516Z"/></svg>